# xmcd CD database file
#
# Track frame offsets:
#	150
#	57420
#	132087
#	188687
#
# Disc length: 3968 seconds
#
# Revision: 0
# Processed by: cddbd v1.5.2PL0 Copyright (c) Steve Scherf et al.
# Submitted via: CDex 1.70beta2
#
DISCID=300f7e04
DTITLE=Wadada Leo Smith - Ten Freedom Summers [CD2]
DYEAR=2011
DGENRE=Jazz
TTITLE0=Rosa Parks and the Montgomery Bus Boycott, 381 Days
TTITLE1=Black Church
TTITLE2=Freedom Summer: Voter Registration, Acts of Compassion and Enpowerment, 1964
TTITLE3=Lyndon B. Johnson's Great Societyand the Civil Rights Act of 1964
EXTD=YEAR: 2011
EXTT0=
EXTT1=
EXTT2=
EXTT3=
PLAYORDER=
